# xmcd CD database file
#
# Track frame offsets:
#	150
#	22117
#	39624
#	62833
#	77724
#	79889
#	96154
#	110746
#	114293
#	132609
#	136822
#	153336
#	170495
#	201542
#	214904
#	233189
#	237818
#
# Disc length: 3359 seconds
#
# Revision: 0
# Processed by: cddbd v1.4PL0 Copyright (c) Steve Scherf et al.
# Submitted via: CDex 1.40Release
#
DISCID=f30d1d11
DTITLE=Pat Mendoza - The Road That Takes Me
DYEAR=1999
DGENRE=Native American
TTITLE0=Te Amo (I Love You)
TTITLE1=The Streets of Charleston
TTITLE2=The Wind is King (in Wyoming)
TTITLE3=Te Quiero, Mi Vida
TTITLE4=If Ever a Man (poem)
TTITLE5=Colorado Aspen Gold
TTITLE6=Torna A Surriento (Come Back to Sorrento)
TTITLE7=Ye Jacobites (story intro)
TTITLE8=Ye Jacobites (song)
TTITLE9=Loch Lomand (story intro)
TTITLE10=Loch Lomand (song)
TTITLE11=Tofino Bay
TTITLE12=Some Say She Was A Silky...
TTITLE13=The Quiet of My Room
TTITLE14=The Big Sand (The Sand Creek Massacre)
TTITLE15=The Road that Takes Me (poem)
TTITLE16=The Road that Takes Me (song)
EXTD=YEAR: 1999 ID3G: 64
EXTT0=
EXTT1=
EXTT2=
EXTT3=
EXTT4=
EXTT5=
EXTT6=
EXTT7=
EXTT8=
EXTT9=
EXTT10=
EXTT11=
EXTT12=
EXTT13=
EXTT14=
EXTT15=
EXTT16=
PLAYORDER=
